<?xml version="1.0" encoding="UTF-8"?>
<!DOCTYPE svg PUBLIC "-//W3C//DTD SVG 1.1//EN" "http://www.w3.org/Graphics/SVG/1.1/DTD/svg11.dtd">
<!-- Creator: CorelDRAW -->
<svg xmlns="http://www.w3.org/2000/svg" xml:space="preserve" width="2.72878in" height="1.20716in" version="1.1" style="shape-rendering:geometricPrecision; text-rendering:geometricPrecision; image-rendering:optimizeQuality; fill-rule:evenodd; clip-rule:evenodd"
viewBox="0 0 2723.18 1204.68"
 xmlns:xlink="http://www.w3.org/1999/xlink"
 xmlns:xodm="http://www.corel.com/coreldraw/odm/2003">
 <defs>
  <style type="text/css">
   <![CDATA[
    .str0 {stroke:white;stroke-width:6.93;stroke-miterlimit:2.61313}
    .fil3 {fill:#7FD85A}
    .fil1 {fill:white}
    .fil2 {fill:#7FD85A;fill-rule:nonzero}
    .fil0 {fill:white;fill-rule:nonzero}
   ]]>
  </style>
 </defs>
 <g id="Layer_x0020_1">
  <metadata id="CorelCorpID_0Corel-Layer"/>
  <g id="_2792582465632">
   <g>
    <path class="fil0" d="M1486.41 406.44c0,17.11 -3.94,32.68 -11.83,46.72 -7.89,14.03 -19.78,25.26 -35.69,33.69 -15.91,8.42 -35.36,12.63 -58.35,12.63l-38.9 0 0 95.45 -78.6 0 0 -282.73 117.5 0c22.72,0 42.04,4.01 57.95,12.03 15.91,8.02 27.87,19.11 35.89,33.29 8.02,14.17 12.03,30.48 12.03,48.93zm-113.49 30.48c22.19,0 33.29,-10.16 33.29,-30.48 0,-20.59 -11.1,-30.88 -33.29,-30.88l-31.28 0 0 61.36 31.28 0z"/>
    <polygon id="_1" class="fil0" points="1793.19,312.2 1695.74,594.92 1595.08,594.92 1497.23,312.2 1581.45,312.2 1645.61,516.32 1709.38,312.2 "/>
    <path id="_2" class="fil0" d="M2091.96 402.43c-5.08,-9.36 -12.36,-16.51 -21.85,-21.46 -9.49,-4.95 -20.65,-7.42 -33.49,-7.42 -22.19,0 -39.97,7.28 -53.34,21.86 -13.37,14.57 -20.05,34.02 -20.05,58.35 0,25.93 7.02,46.18 21.05,60.76 14.04,14.57 33.35,21.86 57.95,21.86 16.84,0 31.08,-4.28 42.71,-12.84 11.63,-8.55 20.12,-20.85 25.47,-36.89l-87.03 0 0 -50.53 149.19 0 0 63.76c-5.08,17.11 -13.7,33.02 -25.87,47.72 -12.16,14.7 -27.6,26.6 -46.32,35.69 -18.71,9.09 -39.84,13.63 -63.36,13.63 -27.8,0 -52.6,-6.08 -74.39,-18.25 -21.79,-12.16 -38.77,-29.07 -50.93,-50.73 -12.17,-21.66 -18.25,-46.38 -18.25,-74.19 0,-27.8 6.08,-52.6 18.25,-74.39 12.16,-21.79 29.07,-38.77 50.73,-50.93 21.65,-12.16 46.38,-18.25 74.19,-18.25 33.69,0 62.09,8.15 85.22,24.46 23.13,16.31 38.43,38.9 45.92,67.77l-75.8 0z"/>
    <path id="_3" class="fil0" d="M2279.24 408.44c8.02,-12.3 18.05,-21.99 30.08,-29.07 12.03,-7.08 25.4,-10.63 40.1,-10.63l0 72.59 -18.85 0c-17.11,0 -29.95,3.67 -38.5,11.03 -8.56,7.35 -12.83,20.25 -12.83,38.7l0 103.87 -68.58 0 0 -223.78 68.58 0 0 37.3z"/>
    <path id="_4" class="fil0" d="M2416.79 347.89c-12.03,0 -21.86,-3.54 -29.48,-10.63 -7.62,-7.08 -11.43,-15.84 -11.43,-26.26 0,-10.69 3.81,-19.59 11.43,-26.67 7.62,-7.08 17.44,-10.63 29.48,-10.63 11.76,0 21.45,3.54 29.07,10.63 7.62,7.08 11.43,15.98 11.43,26.67 0,10.43 -3.81,19.18 -11.43,26.26 -7.62,7.09 -17.31,10.63 -29.07,10.63zm34.09 23.26l0 223.78 -68.58 0 0 -223.78 68.58 0z"/>
    <path id="_5" class="fil0" d="M2486.97 482.63c0,-22.99 4.35,-43.18 13.03,-60.56 8.69,-17.38 20.52,-30.74 35.49,-40.1 14.97,-9.35 31.68,-14.03 50.13,-14.03 14.71,0 28.14,3.07 40.31,9.22 12.16,6.15 21.72,14.44 28.67,24.87l0 -103.87 68.58 0 0 296.76 -68.58 0 0 -32.08c-6.42,10.69 -15.57,19.25 -27.47,25.67 -11.9,6.42 -25.73,9.63 -41.51,9.63 -18.45,0 -35.16,-4.75 -50.13,-14.24 -14.97,-9.49 -26.8,-22.99 -35.49,-40.5 -8.69,-17.51 -13.03,-37.76 -13.03,-60.76zm167.63 0.4c0,-17.11 -4.75,-30.61 -14.24,-40.5 -9.49,-9.89 -21.06,-14.84 -34.69,-14.84 -13.63,0 -25.2,4.88 -34.69,14.64 -9.49,9.76 -14.24,23.19 -14.24,40.3 0,17.11 4.75,30.68 14.24,40.7 9.49,10.03 21.06,15.04 34.69,15.04 13.63,0 25.2,-4.95 34.69,-14.84 9.49,-9.89 14.24,-23.39 14.24,-40.5z"/>
    <g>
     <path class="fil1" d="M639.71 1170.71c-465.66,-337.84 -661.09,-686.48 -637.87,-1043.86 339.46,-165.11 782.38,-144.95 1073.32,-74.77 -135.8,184.33 -362.71,518.43 -454.72,645.78l-143.13 -176.62c83.23,-82.52 142.84,-179.19 176.92,-291.18 -155.38,-1.12 -281.99,18.31 -368.58,66.34 78,207.91 157.17,415.79 464.79,616.75l-110.73 257.57zm18 -442.28l-7.17 6.57 -6.5 -8.02 13.66 1.45z"/>
     <path class="fil1 str0" d="M757.64 655.07l168.65 17.9 -227.67 529.59 116.45 -150.49c37.47,-50.51 73.95,-102.78 108.71,-152.65 42.6,-61.09 198.84,-270.2 220.17,-316.6l-168.26 -15.95 221.88 -521.22c-43.86,31.44 -361.85,504.86 -439.93,609.42z"/>
    </g>
    <path class="fil0" d="M1441.65 717.48c-17.85,-36.39 -55.92,-46.83 -92.65,-46.83 -43.46,0.34 -91.3,20.21 -91.3,68.73 0,52.9 44.47,65.7 92.65,71.42 31.33,3.37 54.58,12.47 54.58,34.7 0,25.6 -26.28,35.38 -54.24,35.38 -28.64,0 -55.93,-11.45 -66.37,-37.4l-37.06 19.2c17.52,43.12 54.58,57.94 102.75,57.94 52.56,0 99.05,-22.57 99.05,-75.13 0,-56.26 -45.82,-69.06 -95.01,-75.13 -28.3,-3.37 -52.56,-9.1 -52.56,-29.65 0,-17.52 15.84,-31.33 48.85,-31.33 25.6,0 47.84,12.8 55.93,26.28l35.37 -18.19z"/>
    <path id="_1_0" class="fil0" d="M1565.3 745.11c-52.9,0 -85.91,39.08 -85.91,86.59 0,47.84 32.34,86.58 86.25,86.58 53.9,0 86.58,-38.74 86.58,-86.58 0,-47.5 -34.02,-86.59 -86.92,-86.59zm0.34 37.4c27.62,0 45.14,24.26 45.14,49.19 0,25.27 -15.16,48.85 -45.14,48.85 -29.99,0 -45.15,-23.58 -45.15,-48.85 0,-24.93 15.5,-49.19 45.15,-49.19z"/>
    <polygon id="_2_1" class="fil0" points="1680.52,679.08 1680.52,914.57 1721.29,914.57 1721.29,679.08 "/>
    <path id="_3_2" class="fil0" d="M1758.34 748.48l0 87.26c0,51.54 28.98,81.53 68.73,81.53 23.25,0 39.08,-8.09 56.26,-24.93l2.7 22.23 36.72 0 0 -166.1 -40.77 0 0 84.73c0,25.44 -17.18,46.66 -42.45,46.66 -26.28,0 -40.09,-19.2 -40.09,-44.47l0 -86.92 -41.1 0z"/>
    <path id="_4_3" class="fil0" d="M1975.98 706.03l0 42.79 -30.99 0 0 35.38 30.99 0 0 71.76c0,41.44 23.59,61.99 59.63,60.64 12.47,-0.33 22.24,-2.36 34.03,-7.07l-11.46 -35.04c-6.06,3.03 -13.48,5.05 -19.88,5.05 -12.8,0 -21.56,-7.75 -21.56,-23.58l0 -71.76 46.16 0 0 -35.38 -45.82 0 0 -47.17 -41.1 4.38z"/>
    <path id="_5_4" class="fil0" d="M2134.66 747.8l0 166.77 -41.1 0 0 -166.77 41.1 0zm-44.81 -46.16c0,32.01 48.51,32.01 48.51,0 0,-32.01 -48.51,-32.01 -48.51,0z"/>
    <path id="_6" class="fil0" d="M2253.59 745.11c-52.9,0 -85.91,39.08 -85.91,86.59 0,47.84 32.34,86.58 86.25,86.58 53.9,0 86.58,-38.74 86.58,-86.58 0,-47.5 -34.02,-86.59 -86.92,-86.59zm0.34 37.4c27.62,0 45.14,24.26 45.14,49.19 0,25.27 -15.16,48.85 -45.14,48.85 -29.99,0 -45.15,-23.58 -45.15,-48.85 0,-24.93 15.5,-49.19 45.15,-49.19z"/>
    <path id="_7" class="fil0" d="M2532.21 914.57l0 -87.26c0,-52.22 -31.33,-81.53 -70.41,-81.53 -20.89,0 -37.73,8.42 -54.58,24.93l-2.7 -22.57 -36.72 0 0 166.43 40.76 0 0 -84.9c0,-25.27 17.19,-46.49 42.45,-46.49 26.28,0 40.09,19.2 40.09,44.47l0 86.92 41.1 0z"/>
    <path id="_8" class="fil0" d="M2698.97 765.66c-19.2,-16.85 -38.74,-21.9 -64.69,-21.9 -30.32,0 -70.08,13.48 -70.08,51.88 0,37.73 37.4,49.19 68.73,51.55 23.59,1.35 33.02,6.07 33.02,17.52 0,12.13 -14.49,20.21 -29.99,19.88 -18.53,-0.33 -45.48,-10.11 -57.27,-23.24l-20.21 29.31c24.26,25.27 50.53,29.65 76.81,29.65 47.5,0 71.42,-25.27 71.42,-54.58 0,-44.13 -39.76,-51.21 -71.09,-53.23 -21.22,-1.35 -31,-7.41 -31,-18.19 0,-10.44 10.78,-16.51 30.32,-16.51 15.83,0 29.31,3.7 41.1,14.82l22.91 -26.95z"/>
   </g>
   <g>
    <path class="fil2" d="M1486.41 406.44c0,17.11 -3.94,32.68 -11.83,46.72 -7.89,14.03 -19.78,25.26 -35.69,33.69 -15.91,8.42 -35.36,12.63 -58.35,12.63l-38.9 0 0 95.45 -78.6 0 0 -282.73 117.5 0c22.72,0 42.04,4.01 57.95,12.03 15.91,8.02 27.87,19.11 35.89,33.29 8.02,14.17 12.03,30.48 12.03,48.93zm-113.49 30.48c22.19,0 33.29,-10.16 33.29,-30.48 0,-20.59 -11.1,-30.88 -33.29,-30.88l-31.28 0 0 61.36 31.28 0z"/>
    <polygon id="_1_5" class="fil2" points="1793.19,312.2 1695.74,594.92 1595.08,594.92 1497.23,312.2 1581.45,312.2 1645.61,516.32 1709.38,312.2 "/>
    <path id="_2_6" class="fil2" d="M2091.96 402.43c-5.08,-9.36 -12.36,-16.51 -21.85,-21.46 -9.49,-4.95 -20.65,-7.42 -33.49,-7.42 -22.19,0 -39.97,7.28 -53.34,21.86 -13.37,14.57 -20.05,34.02 -20.05,58.35 0,25.93 7.02,46.18 21.05,60.76 14.04,14.57 33.35,21.86 57.95,21.86 16.84,0 31.08,-4.28 42.71,-12.84 11.63,-8.55 20.12,-20.85 25.47,-36.89l-87.03 0 0 -50.53 149.19 0 0 63.76c-5.08,17.11 -13.7,33.02 -25.87,47.72 -12.16,14.7 -27.6,26.6 -46.32,35.69 -18.71,9.09 -39.84,13.63 -63.36,13.63 -27.8,0 -52.6,-6.08 -74.39,-18.25 -21.79,-12.16 -38.77,-29.07 -50.93,-50.73 -12.17,-21.66 -18.25,-46.38 -18.25,-74.19 0,-27.8 6.08,-52.6 18.25,-74.39 12.16,-21.79 29.07,-38.77 50.73,-50.93 21.65,-12.16 46.38,-18.25 74.19,-18.25 33.69,0 62.09,8.15 85.22,24.46 23.13,16.31 38.43,38.9 45.92,67.77l-75.8 0z"/>
    <path id="_3_7" class="fil2" d="M2279.24 408.44c8.02,-12.3 18.05,-21.99 30.08,-29.07 12.03,-7.08 25.4,-10.63 40.1,-10.63l0 72.59 -18.85 0c-17.11,0 -29.95,3.67 -38.5,11.03 -8.56,7.35 -12.83,20.25 -12.83,38.7l0 103.87 -68.58 0 0 -223.78 68.58 0 0 37.3z"/>
    <path id="_4_8" class="fil2" d="M2416.79 347.89c-12.03,0 -21.86,-3.54 -29.48,-10.63 -7.62,-7.08 -11.43,-15.84 -11.43,-26.26 0,-10.69 3.81,-19.59 11.43,-26.67 7.62,-7.08 17.44,-10.63 29.48,-10.63 11.76,0 21.45,3.54 29.07,10.63 7.62,7.08 11.43,15.98 11.43,26.67 0,10.43 -3.81,19.18 -11.43,26.26 -7.62,7.09 -17.31,10.63 -29.07,10.63zm34.09 23.26l0 223.78 -68.58 0 0 -223.78 68.58 0z"/>
    <path id="_5_9" class="fil2" d="M2486.97 482.63c0,-22.99 4.35,-43.18 13.03,-60.56 8.69,-17.38 20.52,-30.74 35.49,-40.1 14.97,-9.35 31.68,-14.03 50.13,-14.03 14.71,0 28.14,3.07 40.31,9.22 12.16,6.15 21.72,14.44 28.67,24.87l0 -103.87 68.58 0 0 296.76 -68.58 0 0 -32.08c-6.42,10.69 -15.57,19.25 -27.47,25.67 -11.9,6.42 -25.73,9.63 -41.51,9.63 -18.45,0 -35.16,-4.75 -50.13,-14.24 -14.97,-9.49 -26.8,-22.99 -35.49,-40.5 -8.69,-17.51 -13.03,-37.76 -13.03,-60.76zm167.63 0.4c0,-17.11 -4.75,-30.61 -14.24,-40.5 -9.49,-9.89 -21.06,-14.84 -34.69,-14.84 -13.63,0 -25.2,4.88 -34.69,14.64 -9.49,9.76 -14.24,23.19 -14.24,40.3 0,17.11 4.75,30.68 14.24,40.7 9.49,10.03 21.06,15.04 34.69,15.04 13.63,0 25.2,-4.95 34.69,-14.84 9.49,-9.89 14.24,-23.39 14.24,-40.5z"/>
    <g>
     <path class="fil3" d="M639.71 1170.71c-465.66,-337.84 -661.09,-686.48 -637.87,-1043.86 339.46,-165.11 782.38,-144.95 1073.32,-74.77 -135.8,184.33 -362.71,518.43 -454.72,645.78l-143.13 -176.62c83.23,-82.52 142.84,-179.19 176.92,-291.18 -155.38,-1.12 -281.99,18.31 -368.58,66.34 78,207.91 157.17,415.79 464.79,616.75l-110.73 257.57zm18 -442.28l-7.17 6.57 -6.5 -8.02 13.66 1.45z"/>
     <path class="fil3 str0" d="M757.64 655.07l168.65 17.9 -227.67 529.59 116.45 -150.49c37.47,-50.51 73.95,-102.78 108.71,-152.65 42.6,-61.09 198.84,-270.2 220.17,-316.6l-168.26 -15.95 221.88 -521.22c-43.86,31.44 -361.85,504.86 -439.93,609.42z"/>
    </g>
    <path class="fil2" d="M1441.65 717.48c-17.85,-36.39 -55.92,-46.83 -92.65,-46.83 -43.46,0.34 -91.3,20.21 -91.3,68.73 0,52.9 44.47,65.7 92.65,71.42 31.33,3.37 54.58,12.47 54.58,34.7 0,25.6 -26.28,35.38 -54.24,35.38 -28.64,0 -55.93,-11.45 -66.37,-37.4l-37.06 19.2c17.52,43.12 54.58,57.94 102.75,57.94 52.56,0 99.05,-22.57 99.05,-75.13 0,-56.26 -45.82,-69.06 -95.01,-75.13 -28.3,-3.37 -52.56,-9.1 -52.56,-29.65 0,-17.52 15.84,-31.33 48.85,-31.33 25.6,0 47.84,12.8 55.93,26.28l35.37 -18.19z"/>
    <path id="_1_10" class="fil2" d="M1565.3 745.11c-52.9,0 -85.91,39.08 -85.91,86.59 0,47.84 32.34,86.58 86.25,86.58 53.9,0 86.58,-38.74 86.58,-86.58 0,-47.5 -34.02,-86.59 -86.92,-86.59zm0.34 37.4c27.62,0 45.14,24.26 45.14,49.19 0,25.27 -15.16,48.85 -45.14,48.85 -29.99,0 -45.15,-23.58 -45.15,-48.85 0,-24.93 15.5,-49.19 45.15,-49.19z"/>
    <polygon id="_2_11" class="fil2" points="1680.52,679.08 1680.52,914.57 1721.29,914.57 1721.29,679.08 "/>
    <path id="_3_12" class="fil2" d="M1758.34 748.48l0 87.26c0,51.54 28.98,81.53 68.73,81.53 23.25,0 39.08,-8.09 56.26,-24.93l2.7 22.23 36.72 0 0 -166.1 -40.77 0 0 84.73c0,25.44 -17.18,46.66 -42.45,46.66 -26.28,0 -40.09,-19.2 -40.09,-44.47l0 -86.92 -41.1 0z"/>
    <path id="_4_13" class="fil2" d="M1975.98 706.03l0 42.79 -30.99 0 0 35.38 30.99 0 0 71.76c0,41.44 23.59,61.99 59.63,60.64 12.47,-0.33 22.24,-2.36 34.03,-7.07l-11.46 -35.04c-6.06,3.03 -13.48,5.05 -19.88,5.05 -12.8,0 -21.56,-7.75 -21.56,-23.58l0 -71.76 46.16 0 0 -35.38 -45.82 0 0 -47.17 -41.1 4.38z"/>
    <path id="_5_14" class="fil2" d="M2134.66 747.8l0 166.77 -41.1 0 0 -166.77 41.1 0zm-44.81 -46.16c0,32.01 48.51,32.01 48.51,0 0,-32.01 -48.51,-32.01 -48.51,0z"/>
    <path id="_6_15" class="fil2" d="M2253.59 745.11c-52.9,0 -85.91,39.08 -85.91,86.59 0,47.84 32.34,86.58 86.25,86.58 53.9,0 86.58,-38.74 86.58,-86.58 0,-47.5 -34.02,-86.59 -86.92,-86.59zm0.34 37.4c27.62,0 45.14,24.26 45.14,49.19 0,25.27 -15.16,48.85 -45.14,48.85 -29.99,0 -45.15,-23.58 -45.15,-48.85 0,-24.93 15.5,-49.19 45.15,-49.19z"/>
    <path id="_7_16" class="fil2" d="M2532.21 914.57l0 -87.26c0,-52.22 -31.33,-81.53 -70.41,-81.53 -20.89,0 -37.73,8.42 -54.58,24.93l-2.7 -22.57 -36.72 0 0 166.43 40.76 0 0 -84.9c0,-25.27 17.19,-46.49 42.45,-46.49 26.28,0 40.09,19.2 40.09,44.47l0 86.92 41.1 0z"/>
    <path id="_8_17" class="fil2" d="M2698.97 765.66c-19.2,-16.85 -38.74,-21.9 -64.69,-21.9 -30.32,0 -70.08,13.48 -70.08,51.88 0,37.73 37.4,49.19 68.73,51.55 23.59,1.35 33.02,6.07 33.02,17.52 0,12.13 -14.49,20.21 -29.99,19.88 -18.53,-0.33 -45.48,-10.11 -57.27,-23.24l-20.21 29.31c24.26,25.27 50.53,29.65 76.81,29.65 47.5,0 71.42,-25.27 71.42,-54.58 0,-44.13 -39.76,-51.21 -71.09,-53.23 -21.22,-1.35 -31,-7.41 -31,-18.19 0,-10.44 10.78,-16.51 30.32,-16.51 15.83,0 29.31,3.7 41.1,14.82l22.91 -26.95z"/>
   </g>
  </g>
 </g>
</svg>
